<svg xmlns="http://www.w3.org/2000/svg" width="51" height="40" viewBox="0 0 51 40">
  <g id="Group_330" data-name="Group 330" transform="translate(-508 -96)">
    <g id="Rectangle" transform="translate(508 96)" fill="#fff" stroke="rgba(157,173,188,0.36)" stroke-miterlimit="10" stroke-width="1">
      <rect width="51" height="40" rx="2.13" stroke="none"/>
      <rect x="0.5" y="0.5" width="50" height="39" rx="1.63" fill="none"/>
    </g>
    <g id="American_Express_logo__2018_" data-name="American_Express_logo_(2018)" transform="translate(520 101.988)">
      <path id="Path" d="M26.964,14.593V0H0V26.964H26.964V19.1c-.06,0,0-4.5,0-4.5" transform="translate(0 0.012)" fill="#006fcf"/>
      <path id="Shape" d="M16.575,11.111H14.413V9.849a2.911,2.911,0,0,1-1.081.18h.12V11.05h-3l-.421-.6-.42.6H4.8V6.306h4.8l.42.6.421-.6H26.964v4.444a2.805,2.805,0,0,1-.695.263c-.107.03-.217.061-.326.1H17l-.421-.6v.6Zm-.3-6.365H13.332l-.421-.6v.6H2.342L2.1,4.083h-.48l-.241.661H0v-2.7L.84,0H2.763l.36.84V0h2.4l.3.781L6.126,0H16.275V.3a1.044,1.044,0,0,1,.148-.059A1.022,1.022,0,0,0,16.575.18c.031-.016.059-.032.084-.046A.4.4,0,0,1,16.875.06a.755.755,0,0,0,.181-.03.752.752,0,0,1,.18-.03h3.544l.36.84V0h1.921l.421.66V0H25.7V4.744H23.662l-.481-.661v.6H20.239L20,4.024h-.48l-.241.66H17.115a.761.761,0,0,1-.36-.06.306.306,0,0,0-.119-.059.3.3,0,0,1-.121-.06.3.3,0,0,0-.121-.06.3.3,0,0,1-.119-.059v.36Z" transform="translate(0 8.36)" fill="#fff"/>
      <path id="Shape-2" data-name="Shape" d="M25.883,9.488H24.322v-.66h1.621a.325.325,0,0,0,.27-.1.3.3,0,0,0,.03-.262.284.284,0,0,0-.3-.3h-.721a.841.841,0,0,1-.961-.9.982.982,0,0,1,1.081-.961h1.621l-.3.66H25.283a.3.3,0,1,0,0,.6H26a.84.84,0,0,1,.96.9A1,1,0,0,1,25.883,9.488Zm-2.942,0H21.379v-.66H23a.329.329,0,0,0,.26-.113.28.28,0,0,0,.04-.248.284.284,0,0,0-.3-.3H22.28a.84.84,0,0,1-.96-.9A.982.982,0,0,1,22.4,6.306h1.621l-.3.66H22.34a.3.3,0,0,0,0,.6h.721a.841.841,0,0,1,.961.9A1,1,0,0,1,22.941,9.488ZM15.854,9.43h-.721V6.245h1.682A1,1,0,0,1,17.9,7.267a.959.959,0,0,1-.841.96l1.079,1.2-.9,0-.96-1.141h-.36l-.06,1.141Zm.06-2.584v.781h.9a.365.365,0,1,0,0-.721ZM20.9,9.429H18.377V6.245H20.9v.6H19.1v.6h1.741v.66H19.1v.66h1.8v.66Zm-8.287,0h-.721V6.245l1.741-.059a1.034,1.034,0,0,1,1.081,1.081,1.053,1.053,0,0,1-1.14,1.081h-.961v1.08Zm0-2.522v.84h.961a.379.379,0,0,0,.42-.421.429.429,0,0,0-.48-.42Zm-.9,2.522h-.9l-.781-1.081-.78,1.021h-.9L9.609,7.807,8.348,6.245h.9l.78,1.022.781-1.022h.9L10.449,7.807l1.26,1.62Zm-3.6,0H5.585V6.245H8.107v.6h-1.8v.6H8.047v.66H6.306v.66h1.8v.66ZM22.581,3.184H21.86V0h.96l1.141,1.8.18.3V0h.721V3.182h-.9L22.7,1.261l-.12-.241V3.183Zm-17.9,0H3.964V0h1.2l.721,2.162L6.606,0h1.2V3.182H7.087V.6l-.9,2.582H5.525L4.684.6V3.183Zm7.567,0H11.53V0h1.682a1,1,0,0,1,1.081,1.021.959.959,0,0,1-.841.961l1.079,1.2-.9,0-.96-1.14h-.36l-.06,1.14ZM12.311.6v.78h.9a.365.365,0,1,0,0-.721Zm6.365,2.582H17.9L19.277,0h.961l1.38,3.181h-.78l-.3-.66H18.977l-.3.66ZM19.818.54l-.241.66-.3.721h1.081l-.3-.721ZM.781,3.183H0L1.381,0h.9L3.663,3.181h-.78l-.241-.66H1.081l-.3.66ZM1.862.54l-.241.66-.3.721H2.4L2.1,1.2ZM17.476,3.183h0a1.4,1.4,0,0,1-1.441-1.561v-.06A1.436,1.436,0,0,1,17.536,0h.84V.66H17.6a.8.8,0,0,0-.84.9v.06a.8.8,0,0,0,.84.9h.18l-.3.66Zm-1.982,0h-.721V.06h.721V3.182Zm-4.5,0H8.468V0H10.99V.6h-1.8v.6H10.93v.661H9.188v.66h1.8v.659Z" transform="translate(0 9.14)" fill="#006fcf"/>
    </g>
  </g>
</svg>
